<?xml version="1.0" encoding="UTF-8" standalone="no"?>
<svg
   xmlns:dc="http://purl.org/dc/elements/1.1/"
   xmlns:cc="http://creativecommons.org/ns#"
   xmlns:rdf="http://www.w3.org/1999/02/22-rdf-syntax-ns#"
   xmlns:svg="http://www.w3.org/2000/svg"
   xmlns="http://www.w3.org/2000/svg"
   xmlns:sodipodi="http://sodipodi.sourceforge.net/DTD/sodipodi-0.dtd"
   xmlns:inkscape="http://www.inkscape.org/namespaces/inkscape"
   width="210mm"
   height="210mm"
   viewBox="0 0 210 210"
   version="1.1"
   id="svg59"
   sodipodi:docname="test.svg"
   inkscape:version="1.0.1 (3bc2e813f5, 2020-09-07)">
  <defs
     id="defs53">
    <clipPath
       clipPathUnits="userSpaceOnUse"
       id="clipPath100">
      <rect
         style="fill:none;stroke-width:0.264583"
         id="rect102"
         width="125.63269"
         height="138.82375"
         x="-165.53374"
         y="41.810879" />
    </clipPath>
  </defs>
  <sodipodi:namedview
     id="base"
     pagecolor="#ffffff"
     bordercolor="#666666"
     borderopacity="1.0"
     inkscape:pageopacity="0.0"
     inkscape:pageshadow="2"
     inkscape:zoom="0.35"
     inkscape:cx="-195.12753"
     inkscape:cy="631.20194"
     inkscape:document-units="mm"
     inkscape:current-layer="layer1"
     inkscape:document-rotation="0"
     showgrid="false"
     inkscape:snap-global="true"
     inkscape:window-width="1920"
     inkscape:window-height="1057"
     inkscape:window-x="-8"
     inkscape:window-y="-8"
     inkscape:window-maximized="1" />
  <metadata
     id="metadata56">
    <rdf:RDF>
      <cc:Work
         rdf:about="">
        <dc:format>image/svg+xml</dc:format>
        <dc:type
           rdf:resource="http://purl.org/dc/dcmitype/StillImage" />
        <dc:title></dc:title>
      </cc:Work>
    </rdf:RDF>
  </metadata>
  <g
     inkscape:label="Layer 1"
     inkscape:groupmode="layer"
     id="layer1">
    <path
       id="path79"
       d="M -239.93748,-5.9996296 V 301.35989 H 23.590109 V -5.9996296 Z m 14.595,19.6323926 H -110.81563 3.7112172 V 147.81423 281.99571 H -110.81563 -225.34248 V 147.81423 Z m 59.80874,28.178125 v 20.126937 20.127452 h 0.33383 0.33435 l 19.05568,-20.127452 19.0562,-20.126937 h -19.39003 z m 72.685553,1.823809 -36.295533,38.093133 -36.39002,37.90415 v 18.44383 18.44384 l 39.13766,-41.25278 39.137147,-41.252263 1.422802,-1.322917 1.800258,1.322917 6.4704,5.181595 4.58112,5.55935 3.48247,8.182965 2.53732,8.749853 0.4904,9.69656 -0.64388,9.1302 -2.79932,7.17165 -2.98844,6.03839 -5.27513,5.50458 -5.27565,5.50405 -5.72627,3.16312 -9.31674,2.97398 -11.679387,0.68781 -15.27039,0.49919 -11.77086,12.27626 -11.77085,12.27625 v 1.03249 1.03302 h 20.90467 20.90415 l 9.954427,-1.41077 9.95391,-1.41129 9.3307,-4.61367 9.33069,-4.61315 9.12451,-7.86877 7.23419,-9.38082 4.5961,-10.20558 4.5961,-10.20506 1.35754,-9.93583 0.97978,-10.50323 -1.02577,-8.993255 -1.40302,-9.56014 -3.44578,-9.412861 -4.95784,-9.034592 -8.86923,-10.277925 -6.97942,-6.687447 -9.43146,-6.008417 -8.29768,-4.307232 -6.077447,-2.38472 z m -17.331313,153.804933 -2.86287,0.0109 -2.86339,0.0109 v 11.40551 11.4055 h 2.54506 2.54507 v -6.03839 -6.03787 l 0.95446,-0.0108 0.95446,-0.0109 5.18883,6.28179 5.188827,6.28127 2.12804,-0.86144 2.12804,-0.86094 v -10.7766 -10.7766 h -2.54455 -2.54507 l -0.0491,6.37325 -0.0491,6.37378 -5.359367,-6.38463 z m -52.80918,0.0217 v 11.57191 11.57138 l 7.00836,-0.61288 7.00888,-0.61288 3.17138,-3.14193 3.17138,-3.14141 v -4.71134 -4.71186 l -2.76675,-3.10523 -2.76676,-3.10576 h -7.4135 z m 72.533557,0 v 10.51099 10.51099 l 0.84853,0.89451 0.84801,0.89452 h 1.69653 1.69706 v -11.4055 -11.40551 h -2.54507 z m 10.18026,0 v 11.46959 11.46958 l 7.953,-0.39946 7.95352,-0.39946 v -2.01279 -2.0128 l -5.40846,-0.4129 -5.40793,-0.41237 v -1.9358 -1.93529 h 4.45347 4.45399 v -2.68355 -2.68356 h -4.45399 -4.45347 v -1.9358 -1.9358 l 5.30923,-0.41238 5.30924,-0.41237 0.52296,-1.67742 0.52297,-1.67742 h -8.37727 z m 20.35999,0 v 10.51099 10.51099 l 0.90382,0.95291 0.90383,0.95291 7.03729,-0.39377 7.03678,-0.39378 0.42426,-2.34817 0.42375,-2.34818 h -5.8198 -5.8198 v -8.72195 -8.72195 h -2.54506 z m -74.191847,0.67076 -4.26072,10.52908 -4.26124,10.52855 v 0.54105 0.54157 h 2.58537 2.58486 l 0.73225,-2.01279 0.73277,-2.0128 h 4.79816 4.79816 l 1.58388,2.0128 1.5844,2.01279 h 1.75286 1.75287 v -1.71617 -1.71566 l -3.74241,-9.35447 -3.74292,-9.35395 h -3.44889 z m -23.79183,3.35484 h 3.84473 3.84473 l 1.44952,3.35431 1.44952,3.35484 -1.44952,3.35431 -1.44952,3.35484 h -3.84473 -3.84473 v -6.70915 z m 26.90068,2.01279 1.70843,3.33778 1.7079,3.33727 -0.59996,1.02319 -0.59945,1.0232 h -1.75855 -1.75854 l -0.56224,-1.00615 -0.56173,-1.00613 1.21233,-3.35484 z m 2.32803,25.49405 -1.23352,2.0128 -1.23351,2.0128 -0.0196,4.9444 -0.0191,4.9444 1.24075,3.44217 1.24127,3.44165 2.25826,-0.0408 2.25826,-0.0408 -2.22674,-1.36736 -2.22674,-1.36788 v -3.84679 -3.84679 l 1.5906,-0.7829 1.5906,-0.7829 -1.5906,-0.78238 -1.5906,-0.7829 -0.0196,-3.57807 z m 49.836227,1.85622 -1.40146,2.76211 -1.40198,2.7621 h 1.18132 1.1808 l 0.73278,-2.0128 0.73225,-2.01279 h 2.44895 2.44894 l 0.76792,2.10995 0.76739,2.10995 -1.15083,2.25102 -1.15135,2.25103 -3.29799,3.25303 -3.29799,3.25251 v 1.10795 1.10794 h 5.16506 5.16505 l -0.78651,-1.34152 -0.78652,-1.34204 h -2.58278 -2.58331 l 3.36207,-4.21266 3.36155,-4.21266 -0.3855,-3.50263 -0.38551,-3.50263 -4.05092,-0.41393 z m -73.974807,0.15658 v 9.39271 9.39271 h 5.16506 5.16506 l -0.78652,-1.34152 -0.78651,-1.34204 h -3.74241 -3.74241 v -3.35432 -3.35483 l 2.8634,-0.18242 2.86287,-0.18293 -2.86287,-0.58136 -2.8634,-0.58136 v -3.18069 -3.18016 l 4.77181,-0.52607 4.77231,-0.52658 -5.40845,-0.22531 z m 46.31965,0 -1.52704,1.61024 -1.52704,1.61024 v 1.28157 1.28158 l 2.49753,-2.38384 2.49752,-2.38331 1.95647,0.79168 1.95595,0.79116 v 2.72232 2.7218 l -4.60178,5.37125 -4.60179,5.37073 h 5.94951 5.949497 l -0.78651,-1.34152 -0.78652,-1.34204 h -2.621017 -2.62103 l 3.33261,-4.60695 3.332097,-4.60644 v -1.834 -1.83399 l -1.52704,-1.61024 -1.527037,-1.61024 h -2.67219 z m 13.997597,0 -1.52704,1.61024 -1.52704,1.61024 v 5.67407 5.67407 l 1.99988,2.1084 1.99936,2.1084 h 1.26556 1.26503 l 2.46135,-1.38906 2.46135,-1.38907 v -6.39341 -6.3934 l -1.52704,-1.61024 -1.52704,-1.61024 h -2.67218 z m 27.57609,0 -1.31723,2.59571 -1.31775,2.59519 v 3.81527 3.81527 l 1.98128,2.98225 1.98075,2.98173 h 2.31717 2.31718 l 1.7172,-2.18178 1.71773,-2.1823 v -5.02863 -5.02812 l -1.71773,-2.18229 -1.7172,-2.1823 h -2.9807 z m 2.30632,0.67128 2.30115,1.47743 2.30167,1.47794 0.40049,4.98936 0.39998,4.98988 -1.5105,1.91875 -1.51051,1.91926 h -1.02577 -1.02578 l -1.99936,-2.10892 -1.99988,-2.1084 v -3.67316 -3.67316 l 1.834,-2.60449 z m -27.63294,0.15554 2.12029,1.3994 2.12028,1.3994 0.39429,4.16357 0.39429,4.16357 -1.39371,2.74557 -1.3932,2.74557 -0.91002,-0.0408 -0.9095,-0.0408 -2.22674,-1.36788 -2.22725,-1.36735 v -5.13664 -5.13612 l 2.01589,-1.76372 z m -48.649217,3.19878 -0.80822,2.22156 -0.80874,2.22209 2.8944,2.47117 2.89491,2.47168 -0.72554,1.99316 -0.72553,1.99316 -2.16576,-0.87643 -2.16576,-0.87592 0.92036,1.56994 0.91984,1.56941 h 1.67793 1.67793 l 1.62265,-2.06086 1.62212,-2.06137 -3.47989,-3.82974 -3.47938,-3.82974 1.37666,-0.89711 1.37718,-0.89761 1.27227,0.8294 1.27279,0.82941 v -1.4211 -1.4211 h -2.58537 z m -31.73295,4.02559 v 1.34152 1.34204 h 2.62 2.61999 l -0.786,-1.34204 -0.78651,-1.34152 h -1.834 z m 127.402037,0 -0.78651,1.34152 -0.78652,1.34204 h 2.62051 2.62 v -1.34204 -1.34152 h -1.83348 z"
       clip-path="url(#clipPath100)"
       transform="matrix(1.664078,0,0,1.507013,275.89933,-62.621482)"
       sodipodi:nodetypes="ccccccccccccccccccccccccccccccccccccccccccccccccccccccccccccccccccccccccccccccccccccccccccccccccccccccccccccccccccccccccccccccccccccccccccccccccccccccccccccccccccccccccccccccccccccccccccccccccccccccccccccccccccccccccccccccccccccccccccccccccccccccccccccccccccccccccccccccccccccccccccccccccccccccccccccccccccccccccccccccccccccccccccccccccccccccccccccccccccccccccccccccccccccccccccccccccccccccccccccccccccccc" />
    <rect
       style="fill:none;fill-rule:evenodd;stroke-width:0.264583"
       id="rect81"
       width="268.33862"
       height="307.89447"
       x="-254.44058"
       y="-19.777945" />
    <rect
       style="fill:none;stroke-width:0.264583"
       id="rect87"
       width="124.97934"
       height="136.8725"
       x="-239.90524"
       y="24.291023" />
    <rect
       style="fill:none;stroke-width:0.264583"
       id="rect89"
       width="120.55457"
       height="135.08197"
       x="-165.53374"
       y="41.810886" />
    <rect
       style="fill:none;stroke-width:0.273813"
       id="rect96"
       width="125.63269"
       height="138.82375"
       x="-165.53374"
       y="41.810883" />
  </g>
</svg>